<?xml version="1.0" standalone="no"?>
<!DOCTYPE svg PUBLIC "-//W3C//DTD SVG 20010904//EN"
 "http://www.w3.org/TR/2001/REC-SVG-20010904/DTD/svg10.dtd">
<svg version="1.0" xmlns="http://www.w3.org/2000/svg"
 width="800.000000pt" height="800.000000pt" viewBox="0 0 800.000000 800.000000"
 preserveAspectRatio="xMidYMid meet">

<g transform="translate(0.000000,800.000000) scale(0.100000,-0.100000)"
fill="#000000" stroke="none">
<path d="M663 4736 c-39 -19 -58 -35 -80 -73 l-28 -48 0 -350 0 -350 28 -48
c66 -111 246 -132 348 -40 59 53 69 100 69 320 l0 183 -110 0 -110 0 0 -70 0
-70 35 0 35 0 0 -120 c0 -107 -2 -122 -20 -140 -30 -30 -83 -27 -109 6 -20 26
-21 38 -21 329 0 291 1 303 21 329 26 33 79 36 109 6 16 -16 20 -33 20 -90 l0
-70 75 0 75 0 0 63 c0 35 -7 86 -15 114 -37 123 -190 180 -322 119z"/>
<path d="M6615 4745 c-51 -18 -110 -81 -124 -131 -15 -53 -15 -646 0 -699 15
-52 82 -119 134 -134 99 -27 192 -8 251 54 60 62 64 89 64 430 0 341 -4 368
-64 430 -61 63 -166 83 -261 50z m146 -144 l24 -19 0 -317 0 -317 -24 -19
c-32 -26 -77 -24 -106 6 l-25 24 0 306 0 306 25 24 c29 30 74 32 106 6z"/>
<path d="M7146 4745 c-92 -33 -143 -129 -133 -251 7 -96 37 -145 162 -269 85
-85 114 -120 123 -151 28 -96 2 -164 -64 -164 -53 0 -74 28 -74 100 l0 60 -75
0 -75 0 0 -53 c0 -70 23 -145 55 -179 45 -49 83 -63 170 -63 100 0 153 26 193
95 24 41 27 55 27 145 0 135 -15 165 -160 309 -121 120 -144 161 -130 232 11
63 85 85 130 39 20 -19 25 -34 25 -75 l0 -51 73 3 72 3 -3 65 c-8 147 -84 221
-227 220 -27 -1 -67 -7 -89 -15z"/>
<path d="M1140 4293 c-40 -252 -76 -470 -78 -485 l-4 -28 71 0 c50 0 71 4 72
13 0 6 6 48 12 92 l12 80 88 3 c65 2 87 0 88 -10 0 -7 6 -49 12 -93 l12 -80
78 -3 78 -3 -6 33 c-3 18 -37 227 -75 463 -38 237 -72 440 -75 453 -5 21 -10
22 -108 22 l-102 0 -75 -457z m239 -175 c1 -15 -8 -18 -64 -18 -61 0 -65 1
-65 23 0 17 55 421 61 447 2 7 67 -430 68 -452z"/>
<path d="M1660 4264 l0 -486 163 4 c151 3 165 5 207 28 29 17 53 41 70 70 23
42 25 55 25 175 0 118 -2 134 -23 171 -13 22 -37 49 -53 58 l-29 17 31 27 c46
38 59 78 59 184 -1 141 -35 199 -135 227 -22 6 -102 11 -177 11 l-138 0 0
-486z m280 319 c19 -25 21 -38 18 -106 -4 -97 -21 -117 -99 -117 l-49 0 0 125
0 125 54 0 c48 0 57 -4 76 -27z m7 -387 c27 -24 28 -26 28 -131 0 -100 -1
-108 -24 -126 -17 -14 -39 -19 -82 -19 l-59 0 0 150 0 150 54 0 c44 0 61 -5
83 -24z"/>
<path d="M2220 4265 l0 -485 75 0 75 0 0 210 0 210 44 0 c33 0 52 -6 73 -24
l28 -24 3 -164 c4 -225 -4 -208 92 -208 l80 0 -10 26 c-6 14 -10 94 -10 177 0
175 -9 218 -56 265 l-34 34 25 20 c49 39 60 73 60 198 0 127 -10 157 -65 203
-45 38 -90 47 -242 47 l-138 0 0 -485z m269 326 c24 -24 35 -88 26 -157 -8
-67 -37 -94 -101 -94 l-44 0 0 135 0 135 50 0 c36 0 55 -5 69 -19z"/>
<path d="M2780 4265 l0 -485 75 0 75 0 0 485 0 485 -75 0 -75 0 0 -485z"/>
<path d="M3040 4265 l0 -485 205 0 205 0 0 70 0 70 -130 0 -130 0 0 150 0 150
105 0 105 0 0 70 0 70 -105 0 -105 0 0 125 0 125 130 0 130 0 0 70 0 70 -205
0 -205 0 0 -485z"/>
<path d="M3550 4265 l0 -485 200 0 200 0 0 70 0 70 -125 0 -125 0 0 415 0 415
-75 0 -75 0 0 -485z"/>
<path d="M4250 4264 l0 -486 163 4 c151 3 165 5 207 28 29 17 53 41 70 70 23
42 25 55 25 175 0 118 -2 134 -23 171 -13 22 -37 49 -53 58 l-29 17 31 27 c46
38 59 78 59 184 -1 141 -35 199 -135 227 -22 6 -102 11 -177 11 l-138 0 0
-486z m280 319 c19 -25 21 -38 18 -106 -4 -97 -21 -117 -99 -117 l-49 0 0 125
0 125 54 0 c48 0 57 -4 76 -27z m7 -387 c27 -24 28 -26 28 -131 0 -100 -1
-108 -24 -126 -17 -14 -39 -19 -82 -19 l-59 0 0 150 0 150 54 0 c44 0 61 -5
83 -24z"/>
<path d="M4850 4293 c-40 -252 -76 -470 -78 -485 l-4 -28 71 0 c50 0 71 4 72
13 0 6 6 48 12 92 l12 80 88 3 c65 2 87 0 88 -10 0 -7 6 -49 12 -93 l12 -80
78 -3 78 -3 -6 33 c-3 18 -37 227 -75 463 -38 237 -72 440 -75 453 -5 21 -10
22 -108 22 l-102 0 -75 -457z m239 -175 c1 -15 -8 -18 -64 -18 -61 0 -65 1
-65 23 0 17 55 421 61 447 2 7 67 -430 68 -452z"/>
<path d="M5370 4265 l0 -485 75 0 75 0 0 210 0 210 44 0 c33 0 52 -6 73 -24
l28 -24 3 -164 c4 -225 -4 -208 92 -208 l80 0 -10 26 c-6 14 -10 94 -10 177 0
175 -9 218 -56 265 l-34 34 25 20 c49 39 60 73 60 198 0 127 -10 157 -65 203
-45 38 -90 47 -242 47 l-138 0 0 -485z m269 326 c24 -24 35 -88 26 -157 -8
-67 -37 -94 -101 -94 l-44 0 0 135 0 135 50 0 c36 0 55 -5 69 -19z"/>
<path d="M5930 4265 l0 -485 75 0 75 0 0 210 0 210 44 0 c33 0 52 -6 73 -24
l28 -24 3 -164 c4 -225 -4 -208 92 -208 l80 0 -10 26 c-6 14 -10 94 -10 177 0
175 -9 218 -56 265 l-34 34 25 20 c49 39 60 73 60 198 0 127 -10 157 -65 203
-45 38 -90 47 -242 47 l-138 0 0 -485z m269 326 c24 -24 35 -88 26 -157 -8
-67 -37 -94 -101 -94 l-44 0 0 135 0 135 50 0 c36 0 55 -5 69 -19z"/>
</g>
</svg>
